<?xml version="1.0" encoding="utf-8"?>
<!-- Generator: Adobe Illustrator 23.0.3, SVG Export Plug-In . SVG Version: 6.00 Build 0)  -->
<svg version="1.1" id="Layer_1" xmlns="http://www.w3.org/2000/svg" xmlns:xlink="http://www.w3.org/1999/xlink" x="0px" y="0px"
	 viewBox="0 0 200 100" style="enable-background:new 0 0 200 100;" xml:space="preserve">
<style type="text/css">
	.st0{fill:#C5D2D8;}
	.st1{fill:#EDEDED;}
</style>
<rect x="-0.82" class="st0" width="201.65" height="100.56"/>
<g>
	<path class="st1" d="M97.86,48.37c2.51,0,4.54-2.03,4.54-4.54s-2.04-4.54-4.54-4.54c-2.51,0-4.54,2.03-4.54,4.54
		C93.32,46.34,95.36,48.37,97.86,48.37L97.86,48.37z M97.86,41.96c1.04,0,1.88,0.85,1.88,1.88c0,1.04-0.85,1.88-1.88,1.88
		c-1.04,0-1.88-0.85-1.88-1.88S96.82,41.96,97.86,41.96L97.86,41.96z"/>
	<path class="st1" d="M121.06,30.79H78.94c-0.91,0-1.66,0.75-1.66,1.66v35.66c0,0.92,0.75,1.66,1.66,1.66h42.13
		c0.92,0,1.66-0.75,1.66-1.66V32.45C122.72,31.54,121.98,30.79,121.06,30.79L121.06,30.79z M120.06,33.45v21.07l-8.37-8.37
		c-0.55-0.55-1.43-0.54-1.98,0L97.86,58l-7.56-7.56c-0.26-0.26-0.62-0.41-0.99-0.41s-0.73,0.15-0.99,0.41l-8.37,8.37V33.45
		L120.06,33.45L120.06,33.45z M79.94,67.11v-4.53l9.37-9.37l7.56,7.56c0.26,0.26,0.62,0.41,0.99,0.41c0.37,0,0.73-0.15,0.99-0.41
		l11.85-11.85l9.37,9.37v8.81H79.94z"/>
</g>
</svg>
