<?xml version="1.0" encoding="utf-8"?>
<!-- Generator: Adobe Illustrator 23.0.3, SVG Export Plug-In . SVG Version: 6.00 Build 0)  -->
<svg version="1.1" id="Layer_1" xmlns="http://www.w3.org/2000/svg" xmlns:xlink="http://www.w3.org/1999/xlink" x="0px" y="0px"
	 viewBox="0 0 200 200" style="enable-background:new 0 0 200 200;" xml:space="preserve">
<style type="text/css">
	.st0{fill:#C5D2D8;}
	.st1{fill:#EDEDED;}
</style>
<rect y="0.28" class="st0" width="200" height="200"/>
<g>
	<path class="st1" d="M96.33,97.01c4.3,0,7.79-3.49,7.79-7.79c0-4.3-3.5-7.79-7.79-7.79c-4.3,0-7.79,3.49-7.79,7.79
		C88.54,93.52,92.03,97.01,96.33,97.01L96.33,97.01z M96.33,86c1.78,0,3.22,1.45,3.22,3.22c0,1.78-1.45,3.22-3.22,3.22
		c-1.78,0-3.22-1.45-3.22-3.22C93.11,87.45,94.55,86,96.33,86L96.33,86z M96.33,86"/>
	<path class="st1" d="M136.14,66.84H63.86c-1.57,0-2.85,1.28-2.85,2.85v61.19c0,1.57,1.28,2.85,2.85,2.85h72.29
		c1.57,0,2.85-1.28,2.85-2.85V69.69C138.99,68.12,137.71,66.84,136.14,66.84L136.14,66.84z M134.42,71.41v36.16L120.05,93.2
		c-0.94-0.94-2.46-0.93-3.4,0l-20.32,20.32l-12.98-12.98c-0.45-0.45-1.06-0.71-1.7-0.71c-0.64,0-1.25,0.25-1.7,0.7l-14.37,14.37
		v-43.5H134.42z M65.58,129.15v-7.78l16.07-16.07l12.98,12.98c0.45,0.45,1.06,0.71,1.7,0.71c0.64,0,1.25-0.25,1.7-0.7l20.33-20.33
		l16.07,16.07v15.12H65.58z M65.58,129.15"/>
</g>
</svg>
