<?xml version="1.0" encoding="utf-8"?>
<!-- Generator: Adobe Illustrator 23.0.3, SVG Export Plug-In . SVG Version: 6.00 Build 0)  -->
<svg version="1.1" id="Layer_1" xmlns="http://www.w3.org/2000/svg" xmlns:xlink="http://www.w3.org/1999/xlink" x="0px" y="0px"
	 viewBox="0 0 500 500" style="enable-background:new 0 0 500 500;" xml:space="preserve">
<style type="text/css">
	.st0{fill:#D4ECFF;}
	.st1{fill:#173D7A;}
	.st2{fill:#396CAA;}
	.st3{fill:#274F89;}
	.st4{fill:#FFFFFF;}
	.st5{fill:#5793CE;}
	.st6{fill:#C13D1A;}
	.st7{fill:#EF602E;}
	.st8{fill:#FFC2B0;}
	.st9{fill:#EA9C92;}
	.st10{fill:#FF2C9C;}
	.st11{fill:#D3008D;}
</style>
<g>
	<g>
		<path class="st0" d="M268.76,385.52l-126.91-73.27c-3.59-2.07-3.14-5.69,1.01-8.09l86.42-49.88c4.15-2.39,10.42-2.65,14.01-0.58
			l126.91,73.27c3.59,2.07,3.14,5.69-1.01,8.09l-86.42,49.88C278.62,387.34,272.35,387.6,268.76,385.52z"/>
		<g>
			<path class="st1" d="M374.89,182.84l-129.01-74.42c-1.66-0.96-3.19-1.11-4.42-0.59l0.01-0.01l-0.21,0.1
				c-0.02,0.01-0.03,0.02-0.05,0.02l-4.2,1.98l4.56,2.27c0,0.09-0.01,0.17-0.01,0.25l0.04,105.96c0,5.3,3.28,11.49,7.33,13.83
				l125.57,72.44l0.71,5.91l4.59-2.19c1.51-0.89,2.47-2.89,2.47-5.75l-0.04-105.96C382.22,191.37,378.93,185.18,374.89,182.84z"/>
			<path class="st2" d="M374.89,182.84l-129.01-74.42c-1.66-0.96-3.19-1.11-4.42-0.59l0.01-0.01l-0.21,0.1
				c-0.02,0.01-0.03,0.02-0.05,0.02l-4.2,1.98l4.56,2.27c0,0.09-0.01,0.17-0.01,0.25l0.03,69.83l58.71,46.39l79.72-40.12
				C378.69,186.08,376.88,183.99,374.89,182.84z"/>
			<path class="st3" d="M377.04,184.51l-12.64,5.32l9.55,7.35l7.97-3.39C381.22,190.3,379.38,186.8,377.04,184.51z"/>
			<path class="st0" d="M370.69,310.01l-129.01-74.42c-4.05-2.33-7.33-8.53-7.33-13.83l-0.04-105.96c0-5.3,3.28-7.71,7.32-5.38
				l129.01,74.42c4.05,2.33,7.33,8.52,7.33,13.83l0.04,105.96C378.01,309.93,374.73,312.34,370.69,310.01z"/>
			<path class="st4" d="M366.4,302.12l-120.49-69.47c-3.7-2.14-6.71-7.8-6.71-12.65l-0.04-96.96c0-4.85,3-7.05,6.7-4.92
				l120.49,69.47c3.7,2.14,6.71,7.8,6.71,12.65l0.04,96.96C373.1,302.06,370.1,304.26,366.4,302.12z"/>
			<path class="st4" d="M366.4,302.12l-120.49-69.47c-3.7-2.14-6.71-7.8-6.71-12.65l-0.04-96.96c0-4.85,3-7.05,6.7-4.92
				l120.49,69.47c3.7,2.14,6.71,7.8,6.71,12.65l0.04,96.96C373.1,302.06,370.1,304.26,366.4,302.12z"/>
		</g>
		<path class="st1" d="M372.61,313.3l-17.35-2.29l-111.99-64.66c-3.59-2.07-9.86-1.81-14.01,0.58l-79.35,45.8l-10.49-1.39v5.95
			l0.01,0c-0.07,1.38,0.71,2.7,2.41,3.68l126.91,73.27c3.59,2.07,9.86,1.81,14.01-0.58l86.42-49.88c2.33-1.35,3.49-3.08,3.43-4.71
			l0,0V313.3z"/>
		<path class="st2" d="M288.47,272.44l-7.96-4.59h-87.47l-43.12,24.88l-10.49-1.39v5.95l0.01,0c-0.07,1.38,0.71,2.7,2.41,3.68
			l126.91,73.27c1.9,1.1,4.54,1.53,7.23,1.35L288.47,272.44z"/>
		<path class="st5" d="M144.08,291.96l-4.66-0.61v5.95l0.01,0c-0.07,1.38,0.71,2.7,2.41,3.68l2.24,1.29V291.96z"/>
		<path class="st3" d="M270.04,374.84c3.4,1.29,8.27,1.01,11.9-0.74v-13.28h-11.9V374.84z"/>
		<path class="st0" d="M268.76,368.3l-126.91-73.27c-3.59-2.07-3.14-5.69,1.01-8.09l86.42-49.88c4.15-2.39,10.42-2.65,14.01-0.58
			l126.91,73.27c3.59,2.07,3.14,5.69-1.01,8.09l-86.42,49.88C278.62,370.12,272.35,370.38,268.76,368.3z"/>
		<path class="st4" d="M369.19,315.67l-86.42,49.88c-4.15,2.39-10.42,2.65-14.01,0.58l-126.91-73.27c-1.18-0.68-1.91-1.53-2.23-2.44
			c-0.56,1.7,0.15,3.42,2.23,4.62l126.91,73.27c3.59,2.07,9.86,1.81,14.01-0.58l86.42-49.88c2.79-1.61,3.89-3.77,3.24-5.65
			C372.02,313.44,370.93,314.66,369.19,315.67z"/>
		<g>
			<path class="st1" d="M195.82,270.77l-5.74-3.32c-0.46-0.27-0.4-0.73,0.13-1.04l6.78-3.91c0.53-0.31,1.34-0.34,1.8-0.07l5.74,3.32
				c0.46,0.27,0.4,0.73-0.13,1.04l-6.78,3.91C197.09,271,196.28,271.04,195.82,270.77z"/>
			<path class="st1" d="M204.69,275.89l-5.74-3.32c-0.46-0.27-0.4-0.73,0.13-1.04l6.78-3.91c0.53-0.31,1.34-0.34,1.8-0.07l5.74,3.32
				c0.46,0.27,0.4,0.73-0.13,1.04l-6.78,3.91C205.96,276.12,205.15,276.16,204.69,275.89z"/>
			<path class="st1" d="M213.56,281.01l-5.74-3.32c-0.46-0.27-0.4-0.73,0.13-1.04l6.78-3.91c0.53-0.31,1.34-0.34,1.8-0.07l5.74,3.32
				c0.46,0.27,0.4,0.73-0.13,1.04l-6.78,3.91C214.83,281.24,214.02,281.28,213.56,281.01z"/>
			<path class="st1" d="M225.82,276.78l-5.74-3.32c-0.46-0.27-0.4-0.73,0.13-1.04l5.69-3.28c0.53-0.31,1.34-0.34,1.8-0.07l5.74,3.32
				c0.46,0.27,0.4,0.73-0.13,1.04l-5.69,3.29C227.09,277.01,226.29,277.05,225.82,276.78z"/>
			<path class="st1" d="M234.69,281.9l-5.74-3.32c-0.46-0.27-0.4-0.73,0.13-1.04l5.69-3.28c0.53-0.31,1.34-0.34,1.8-0.07l5.74,3.32
				c0.46,0.27,0.4,0.73-0.13,1.04l-5.69,3.28C235.96,282.13,235.15,282.17,234.69,281.9z"/>
			<path class="st1" d="M243.56,287.02l-5.74-3.32c-0.46-0.27-0.4-0.73,0.13-1.04l5.69-3.29c0.53-0.31,1.34-0.34,1.8-0.07l5.74,3.32
				c0.46,0.27,0.4,0.73-0.13,1.04l-5.69,3.28C244.83,287.25,244.02,287.29,243.56,287.02z"/>
			<path class="st1" d="M252.43,292.14l-5.74-3.32c-0.46-0.27-0.4-0.73,0.13-1.04l5.69-3.28c0.53-0.31,1.34-0.34,1.8-0.07l5.74,3.32
				c0.46,0.27,0.4,0.73-0.13,1.04l-5.69,3.29C253.69,292.37,252.89,292.41,252.43,292.14z"/>
			<path class="st1" d="M261.3,297.26l-5.74-3.32c-0.46-0.27-0.4-0.73,0.13-1.04l5.69-3.29c0.53-0.31,1.34-0.34,1.8-0.07l5.74,3.32
				c0.46,0.27,0.4,0.73-0.13,1.04l-5.69,3.28C262.56,297.49,261.76,297.53,261.3,297.26z"/>
			<path class="st1" d="M270.16,302.38l-5.74-3.32c-0.46-0.27-0.4-0.73,0.13-1.04l5.69-3.29c0.53-0.31,1.34-0.34,1.8-0.07l5.74,3.32
				c0.46,0.27,0.4,0.73-0.13,1.04l-5.69,3.28C271.43,302.61,270.63,302.65,270.16,302.38z"/>
			<path class="st1" d="M279.03,307.5l-5.74-3.32c-0.46-0.27-0.4-0.73,0.13-1.04l5.69-3.28c0.53-0.31,1.34-0.34,1.8-0.07l5.74,3.32
				c0.46,0.27,0.4,0.73-0.13,1.04l-5.69,3.29C280.3,307.73,279.49,307.77,279.03,307.5z"/>
			<path class="st1" d="M287.9,312.62l-5.74-3.32c-0.46-0.27-0.4-0.73,0.13-1.04l5.69-3.29c0.53-0.31,1.34-0.34,1.8-0.07l5.74,3.32
				c0.46,0.27,0.4,0.73-0.13,1.04l-5.69,3.28C289.17,312.85,288.36,312.89,287.9,312.62z"/>
			<path class="st1" d="M296.77,317.74l-5.74-3.32c-0.46-0.27-0.4-0.73,0.13-1.04l5.69-3.29c0.53-0.31,1.34-0.34,1.8-0.07l5.74,3.32
				c0.46,0.27,0.4,0.73-0.13,1.04l-5.69,3.28C298.03,317.97,297.23,318.01,296.77,317.74z"/>
			<path class="st1" d="M305.64,322.86l-5.74-3.32c-0.46-0.27-0.4-0.73,0.13-1.04l5.69-3.28c0.53-0.31,1.34-0.34,1.8-0.07l5.74,3.32
				c0.46,0.27,0.4,0.73-0.13,1.04l-5.69,3.29C306.9,323.09,306.1,323.13,305.64,322.86z"/>
			<path class="st2" d="M238.89,274.36l-5.74-3.32c-0.46-0.27-0.4-0.73,0.13-1.04l5.69-3.29c0.53-0.31,1.34-0.34,1.8-0.07l5.74,3.32
				c0.46,0.27,0.4,0.73-0.13,1.04l-5.69,3.29C240.16,274.59,239.35,274.62,238.89,274.36z"/>
			<path class="st2" d="M229.89,269.16l-5.74-3.32c-0.46-0.27-0.4-0.73,0.13-1.04l5.69-3.29c0.53-0.31,1.34-0.34,1.8-0.07l5.74,3.32
				c0.46,0.27,0.4,0.73-0.13,1.04l-5.69,3.28C231.16,269.39,230.35,269.43,229.89,269.16z"/>
			<path class="st1" d="M220.88,263.96l-12.37-7.14c-0.46-0.27-0.4-0.73,0.13-1.04l5.69-3.28c0.53-0.31,1.34-0.34,1.8-0.07
				l12.37,7.14c0.46,0.27,0.4,0.73-0.13,1.04l-5.69,3.29C222.14,264.19,221.34,264.22,220.88,263.96z"/>
			<path class="st1" d="M227.18,257.63l-10.04-5.79c-0.46-0.27-0.4-0.73,0.13-1.04l5.69-3.28c0.53-0.31,1.34-0.34,1.8-0.07
				l10.04,5.79c0.46,0.27,0.4,0.73-0.13,1.04l-5.69,3.28C228.44,257.86,227.64,257.89,227.18,257.63z"/>
			<path class="st2" d="M247.76,279.48l-5.74-3.32c-0.46-0.27-0.4-0.73,0.13-1.04l5.69-3.28c0.53-0.31,1.34-0.34,1.8-0.07l5.74,3.32
				c0.46,0.27,0.4,0.73-0.13,1.04l-5.69,3.29C249.03,279.71,248.22,279.74,247.76,279.48z"/>
			<path class="st1" d="M256.63,284.6l-5.74-3.32c-0.46-0.27-0.4-0.73,0.13-1.04l5.69-3.29c0.53-0.31,1.34-0.34,1.8-0.07l5.74,3.32
				c0.46,0.27,0.4,0.73-0.13,1.04l-5.69,3.28C257.89,284.83,257.09,284.86,256.63,284.6z"/>
			<path class="st1" d="M265.49,289.72l-5.74-3.32c-0.46-0.27-0.4-0.73,0.13-1.04l5.69-3.29c0.53-0.31,1.34-0.34,1.8-0.07l5.74,3.32
				c0.46,0.27,0.4,0.73-0.13,1.04l-5.69,3.28C266.76,289.95,265.96,289.98,265.49,289.72z"/>
			<path class="st1" d="M274.36,294.84l-5.74-3.32c-0.46-0.27-0.4-0.73,0.13-1.04l5.69-3.28c0.53-0.31,1.34-0.34,1.8-0.07l5.74,3.32
				c0.46,0.27,0.4,0.73-0.13,1.04l-5.69,3.28C275.63,295.07,274.82,295.1,274.36,294.84z"/>
			<path class="st1" d="M283.23,299.96l-5.74-3.32c-0.46-0.27-0.4-0.73,0.13-1.04l5.69-3.28c0.53-0.31,1.34-0.34,1.8-0.07l5.74,3.32
				c0.46,0.27,0.4,0.73-0.13,1.04l-5.69,3.29C284.5,300.19,283.69,300.22,283.23,299.96z"/>
			<path class="st1" d="M292.1,305.08l-5.74-3.32c-0.46-0.27-0.4-0.73,0.13-1.04l5.69-3.29c0.53-0.31,1.34-0.34,1.8-0.07l5.74,3.32
				c0.46,0.27,0.4,0.73-0.13,1.04L293.9,305C293.37,305.31,292.56,305.34,292.1,305.08z"/>
			<path class="st1" d="M300.97,310.2l-5.74-3.32c-0.46-0.27-0.4-0.73,0.13-1.04l5.69-3.28c0.53-0.31,1.34-0.34,1.8-0.07l5.74,3.32
				c0.46,0.27,0.4,0.73-0.13,1.04l-5.69,3.29C302.23,310.43,301.43,310.46,300.97,310.2z"/>
			<path class="st1" d="M309.83,315.32l-5.74-3.32c-0.46-0.27-0.4-0.73,0.13-1.04l5.69-3.28c0.53-0.31,1.34-0.34,1.8-0.07l5.74,3.32
				c0.46,0.27,0.4,0.73-0.13,1.04l-5.69,3.29C311.1,315.55,310.3,315.58,309.83,315.32z"/>
			<path class="st1" d="M318.7,320.44l-5.74-3.32c-0.46-0.27-0.4-0.73,0.13-1.04l5.69-3.29c0.53-0.31,1.34-0.34,1.8-0.07l5.74,3.32
				c0.46,0.27,0.4,0.73-0.13,1.04l-5.69,3.28C319.97,320.67,319.16,320.7,318.7,320.44z"/>
			<path class="st1" d="M334.47,329.54l-12.53-7.23c-0.46-0.27-0.4-0.73,0.13-1.04l5.69-3.29c0.53-0.31,1.34-0.34,1.8-0.07
				l12.53,7.23c0.46,0.27,0.4,0.73-0.13,1.04l-5.69,3.29C335.73,329.77,334.93,329.81,334.47,329.54z"/>
			<path class="st1" d="M351.73,319.57l-10.58-6.11c-0.46-0.27-0.4-0.73,0.13-1.04l5.69-3.28c0.53-0.31,1.34-0.34,1.8-0.07
				l10.58,6.11c0.46,0.27,0.4,0.73-0.13,1.04l-5.69,3.28C353,319.8,352.19,319.84,351.73,319.57z"/>
			<path class="st1" d="M263.29,278.48l-5.74-3.32c-0.46-0.27-0.4-0.73,0.13-1.04l5.69-3.28c0.53-0.31,1.34-0.34,1.8-0.07l5.74,3.32
				c0.46,0.27,0.4,0.73-0.13,1.04l-5.69,3.28C264.56,278.71,263.75,278.74,263.29,278.48z"/>
			<path class="st1" d="M254.2,273.23l-5.74-3.32c-0.46-0.27-0.4-0.73,0.13-1.04l5.69-3.29c0.53-0.31,1.34-0.34,1.8-0.07l5.74,3.32
				c0.46,0.27,0.4,0.73-0.13,1.04l-5.69,3.28C255.47,273.46,254.66,273.49,254.2,273.23z"/>
			<path class="st2" d="M245.11,267.98l-5.74-3.32c-0.46-0.27-0.4-0.73,0.13-1.04l5.69-3.29c0.53-0.31,1.34-0.34,1.8-0.07l5.74,3.32
				c0.46,0.27,0.4,0.73-0.13,1.04l-5.69,3.29C246.38,268.21,245.57,268.25,245.11,267.98z"/>
			<path class="st1" d="M236.02,262.73l-5.74-3.32c-0.46-0.27-0.4-0.73,0.13-1.04l5.69-3.28c0.53-0.31,1.34-0.34,1.8-0.07l5.74,3.32
				c0.46,0.27,0.4,0.73-0.13,1.04l-5.69,3.28C237.29,262.97,236.48,263,236.02,262.73z"/>
			<path class="st1" d="M272.16,283.6l-5.74-3.32c-0.46-0.27-0.4-0.73,0.13-1.04l5.69-3.29c0.53-0.31,1.34-0.34,1.8-0.07l5.74,3.32
				c0.46,0.27,0.4,0.73-0.13,1.04l-5.69,3.28C273.42,283.83,272.62,283.86,272.16,283.6z"/>
			<path class="st1" d="M281.02,288.72l-5.74-3.32c-0.46-0.27-0.4-0.73,0.13-1.04l5.69-3.28c0.53-0.31,1.34-0.34,1.8-0.07l5.74,3.32
				c0.46,0.27,0.4,0.73-0.13,1.04l-5.69,3.29C282.29,288.95,281.49,288.98,281.02,288.72z"/>
			<path class="st1" d="M289.89,293.84l-5.74-3.32c-0.46-0.27-0.4-0.73,0.13-1.04l5.69-3.29c0.53-0.31,1.34-0.34,1.8-0.07l5.74,3.32
				c0.46,0.27,0.4,0.73-0.13,1.04l-5.69,3.28C291.16,294.07,290.35,294.1,289.89,293.84z"/>
			<path class="st1" d="M298.76,298.96l-5.74-3.32c-0.46-0.27-0.4-0.73,0.13-1.04l5.69-3.29c0.53-0.31,1.34-0.34,1.8-0.07l5.74,3.32
				c0.46,0.27,0.4,0.73-0.13,1.04l-5.69,3.28C300.03,299.19,299.22,299.22,298.76,298.96z"/>
			<path class="st1" d="M307.63,304.08l-5.74-3.32c-0.46-0.27-0.4-0.73,0.13-1.04l5.69-3.28c0.53-0.31,1.34-0.34,1.8-0.07l5.74,3.32
				c0.46,0.27,0.4,0.73-0.13,1.04l-5.69,3.29C308.89,304.31,308.09,304.34,307.63,304.08z"/>
			<path class="st1" d="M316.5,309.2l-5.74-3.32c-0.46-0.27-0.4-0.73,0.13-1.04l5.69-3.29c0.53-0.31,1.34-0.34,1.8-0.07l5.74,3.32
				c0.46,0.27,0.4,0.73-0.13,1.04l-5.69,3.28C317.76,309.43,316.96,309.46,316.5,309.2z"/>
			<path class="st1" d="M325.36,314.32l-5.74-3.32c-0.46-0.27-0.4-0.73,0.13-1.04l5.69-3.29c0.53-0.31,1.34-0.34,1.8-0.07l5.74,3.32
				c0.46,0.27,0.4,0.73-0.13,1.04l-5.69,3.28C326.63,314.55,325.83,314.58,325.36,314.32z"/>
			<path class="st1" d="M334.23,319.44l-5.74-3.32c-0.46-0.27-0.4-0.73,0.13-1.04l5.69-3.28c0.53-0.31,1.34-0.34,1.8-0.07l5.74,3.32
				c0.46,0.27,0.4,0.73-0.13,1.04l-5.69,3.29C335.5,319.67,334.69,319.7,334.23,319.44z"/>
			<path class="st1" d="M343.1,324.56l-5.74-3.32c-0.46-0.27-0.4-0.73,0.13-1.04l5.69-3.29c0.53-0.31,1.34-0.34,1.8-0.07l5.74,3.32
				c0.46,0.27,0.4,0.73-0.13,1.04l-5.69,3.28C344.37,324.79,343.56,324.82,343.1,324.56z"/>
			<path class="st1" d="M258.62,265.81l-5.74-3.32c-0.46-0.27-0.4-0.73,0.13-1.04l5.69-3.29c0.53-0.31,1.34-0.34,1.8-0.07l5.74,3.32
				c0.46,0.27,0.4,0.73-0.13,1.04l-5.69,3.28C259.89,266.04,259.08,266.08,258.62,265.81z"/>
			<path class="st1" d="M249.8,260.72l-5.74-3.32c-0.46-0.27-0.4-0.73,0.13-1.04l5.69-3.29c0.53-0.31,1.34-0.34,1.8-0.07l5.74,3.32
				c0.46,0.27,0.4,0.73-0.13,1.04l-5.69,3.28C251.06,260.95,250.26,260.98,249.8,260.72z"/>
			<path class="st1" d="M240.97,255.62l-5.74-3.32c-0.46-0.27-0.4-0.73,0.13-1.04l5.69-3.28c0.53-0.31,1.34-0.34,1.8-0.07l5.74,3.32
				c0.46,0.27,0.4,0.73-0.13,1.04l-5.69,3.28C242.24,255.86,241.43,255.89,240.97,255.62z"/>
			<path class="st1" d="M232.15,250.53l-5.74-3.32c-0.46-0.27-0.4-0.73,0.13-1.04l5.69-3.28c0.53-0.31,1.34-0.34,1.8-0.07l5.74,3.32
				c0.46,0.27,0.4,0.73-0.13,1.04l-5.69,3.28C233.41,250.76,232.61,250.79,232.15,250.53z"/>
			<path class="st1" d="M241.22,245.29l-5.74-3.32c-0.46-0.27-0.4-0.73,0.13-1.04l1.88-1.09c0.53-0.31,1.34-0.34,1.8-0.07l5.74,3.32
				c0.46,0.27,0.4,0.73-0.13,1.04l-1.88,1.09C242.49,245.52,241.68,245.56,241.22,245.29z"/>
			<path class="st1" d="M252.74,251.94l-5.74-3.32c-0.46-0.27-0.4-0.73,0.13-1.04l1.88-1.09c0.53-0.31,1.34-0.34,1.8-0.07l5.74,3.32
				c0.46,0.27,0.4,0.73-0.13,1.04l-1.88,1.09C254,252.17,253.2,252.2,252.74,251.94z"/>
			<path class="st1" d="M261.52,257.01l-5.74-3.32c-0.46-0.27-0.4-0.73,0.13-1.04l1.88-1.09c0.53-0.31,1.34-0.34,1.8-0.07l5.74,3.32
				c0.46,0.27,0.4,0.73-0.13,1.04l-1.88,1.09C262.79,257.24,261.98,257.28,261.52,257.01z"/>
			<path class="st1" d="M270.31,262.08l-5.74-3.32c-0.46-0.27-0.4-0.73,0.13-1.04l1.88-1.09c0.53-0.31,1.34-0.34,1.8-0.07l5.74,3.32
				c0.46,0.27,0.4,0.73-0.13,1.04l-1.88,1.09C271.58,262.32,270.77,262.35,270.31,262.08z"/>
			<path class="st1" d="M279.1,267.16l-5.74-3.32c-0.46-0.27-0.4-0.73,0.13-1.04l1.88-1.09c0.53-0.31,1.34-0.34,1.8-0.07l5.74,3.32
				c0.46,0.27,0.4,0.73-0.13,1.04l-1.88,1.09C280.36,267.39,279.56,267.42,279.1,267.16z"/>
			<path class="st1" d="M328.15,295.48l-5.74-3.32c-0.46-0.27-0.4-0.73,0.13-1.04l1.88-1.09c0.53-0.31,1.34-0.34,1.8-0.07l5.74,3.32
				c0.46,0.27,0.4,0.73-0.13,1.04l-1.88,1.09C329.42,295.71,328.62,295.75,328.15,295.48z"/>
			<path class="st1" d="M336.94,300.55l-5.74-3.32c-0.46-0.27-0.4-0.73,0.13-1.04l1.88-1.09c0.53-0.31,1.34-0.34,1.8-0.07l5.74,3.32
				c0.46,0.27,0.4,0.73-0.13,1.04l-1.88,1.09C338.21,300.79,337.4,300.82,336.94,300.55z"/>
			<path class="st1" d="M345.73,305.63l-5.74-3.32c-0.46-0.27-0.4-0.73,0.13-1.04l1.88-1.09c0.53-0.31,1.34-0.34,1.8-0.07l5.74,3.32
				c0.46,0.27,0.4,0.73-0.13,1.04l-1.88,1.09C347,305.86,346.19,305.89,345.73,305.63z"/>
			<path class="st1" d="M354.52,310.7l-5.74-3.32c-0.46-0.27-0.4-0.73,0.13-1.04l1.88-1.09c0.53-0.31,1.34-0.34,1.8-0.07l5.74,3.32
				c0.46,0.27,0.4,0.73-0.13,1.04l-1.88,1.09C355.78,310.93,354.98,310.97,354.52,310.7z"/>
			<path class="st1" d="M267.49,270.93l-5.74-3.32c-0.46-0.27-0.4-0.73,0.13-1.04l5.69-3.28c0.53-0.31,1.34-0.34,1.8-0.07l5.74,3.32
				c0.46,0.27,0.4,0.73-0.13,1.04l-5.69,3.29C268.75,271.16,267.95,271.2,267.49,270.93z"/>
			<path class="st1" d="M276.36,276.05l-5.74-3.32c-0.46-0.27-0.4-0.73,0.13-1.04l5.69-3.28c0.53-0.31,1.34-0.34,1.8-0.07l5.74,3.32
				c0.46,0.27,0.4,0.73-0.13,1.04l-5.69,3.29C277.62,276.28,276.82,276.32,276.36,276.05z"/>
			<path class="st1" d="M285.22,281.17l-5.74-3.32c-0.46-0.27-0.4-0.73,0.13-1.04l5.69-3.29c0.53-0.31,1.34-0.34,1.8-0.07l5.74,3.32
				c0.46,0.27,0.4,0.73-0.13,1.04l-5.69,3.28C286.49,281.4,285.68,281.44,285.22,281.17z"/>
			<path class="st1" d="M294.09,286.29l-5.74-3.32c-0.46-0.27-0.4-0.73,0.13-1.04l5.69-3.28c0.53-0.31,1.34-0.34,1.8-0.07l5.74,3.32
				c0.46,0.27,0.4,0.73-0.13,1.04l-5.69,3.29C295.36,286.52,294.55,286.56,294.09,286.29z"/>
			<path class="st1" d="M302.96,291.41l-5.74-3.32c-0.46-0.27-0.4-0.73,0.13-1.04l5.69-3.28c0.53-0.31,1.34-0.34,1.8-0.07l5.74,3.32
				c0.46,0.27,0.4,0.73-0.13,1.04l-5.69,3.28C304.23,291.64,303.42,291.68,302.96,291.41z"/>
			<path class="st1" d="M311.83,296.53l-5.74-3.32c-0.46-0.27-0.4-0.73,0.13-1.04l5.69-3.29c0.53-0.31,1.34-0.34,1.8-0.07l5.74,3.32
				c0.46,0.27,0.4,0.73-0.13,1.04l-5.69,3.28C313.09,296.76,312.29,296.8,311.83,296.53z"/>
			<path class="st1" d="M320.69,301.65l-5.74-3.32c-0.46-0.27-0.4-0.73,0.13-1.04l5.69-3.29c0.53-0.31,1.34-0.34,1.8-0.07l5.74,3.32
				c0.46,0.27,0.4,0.73-0.13,1.04l-5.69,3.29C321.96,301.88,321.16,301.92,320.69,301.65z"/>
			<path class="st1" d="M329.56,306.77l-5.74-3.32c-0.46-0.27-0.4-0.73,0.13-1.04l5.69-3.28c0.53-0.31,1.34-0.34,1.8-0.07l5.74,3.32
				c0.46,0.27,0.4,0.73-0.13,1.04l-5.69,3.29C330.83,307,330.02,307.04,329.56,306.77z"/>
			<path class="st1" d="M338.43,311.89l-5.74-3.32c-0.46-0.27-0.4-0.73,0.13-1.04l5.69-3.29c0.53-0.31,1.34-0.34,1.8-0.07l5.74,3.32
				c0.46,0.27,0.4,0.73-0.13,1.04l-5.69,3.28C339.7,312.12,338.89,312.16,338.43,311.89z"/>
			<path class="st1" d="M216.79,271.56l-16.91-9.76c-0.46-0.27-0.4-0.73,0.13-1.04l5.69-3.28c0.53-0.31,1.34-0.34,1.8-0.07
				l16.91,9.76c0.46,0.27,0.4,0.73-0.13,1.04l-5.69,3.29C218.05,271.8,217.25,271.83,216.79,271.56z"/>
			<path class="st1" d="M325.73,334.46l-16.91-9.76c-0.46-0.27-0.4-0.73,0.13-1.04l5.69-3.28c0.53-0.31,1.34-0.34,1.8-0.07
				l16.91,9.76c0.46,0.27,0.4,0.73-0.13,1.04l-5.69,3.28C327,334.7,326.19,334.73,325.73,334.46z"/>
			<path class="st1" d="M290.27,325.3l-5.74-3.32c-0.46-0.27-0.4-0.73,0.13-1.04l6.78-3.91c0.53-0.31,1.34-0.34,1.8-0.07l5.74,3.32
				c0.46,0.27,0.4,0.73-0.13,1.04l-6.78,3.91C291.53,325.53,290.73,325.56,290.27,325.3z"/>
			<path class="st1" d="M225.87,288.12l-9.18-5.3c-0.46-0.27-0.4-0.73,0.13-1.04l6.78-3.91c0.53-0.31,1.34-0.34,1.8-0.07l9.18,5.3
				c0.46,0.27,0.4,0.73-0.13,1.04l-6.78,3.91C227.14,288.35,226.33,288.38,225.87,288.12z"/>
			<path class="st1" d="M281.72,320.36l-9.18-5.3c-0.46-0.27-0.4-0.73,0.13-1.04l6.78-3.91c0.53-0.31,1.34-0.34,1.8-0.07l9.18,5.3
				c0.46,0.27,0.4,0.73-0.13,1.04l-6.78,3.91C282.99,320.6,282.19,320.63,281.72,320.36z"/>
			<path class="st1" d="M238.66,295.5l-9.18-5.3c-0.46-0.27-0.4-0.73,0.13-1.04l6.78-3.91c0.53-0.31,1.34-0.34,1.8-0.07l9.18,5.3
				c0.46,0.27,0.4,0.73-0.13,1.04l-6.78,3.91C239.93,295.74,239.12,295.77,238.66,295.5z"/>
			<path class="st1" d="M238.25,285.21l39.93,23.05c0.5,0.29,0.5,0.75,0,1.04l-6.91,3.99c-0.5,0.29-1.3,0.29-1.79,0l-39.93-23.05
				L238.25,285.21z"/>
			<path class="st1" d="M315.05,334.58l6.4,3.69c0.38,0.22,0.33,0.6-0.11,0.85l-2.77,1.6c-0.44,0.25-1.1,0.28-1.47,0.06l-6.4-3.69
				c-0.38-0.22-0.33-0.6,0.11-0.85l2.77-1.6C314.01,334.39,314.68,334.36,315.05,334.58z"/>
			<path class="st1" d="M306.11,329.42l6.4,3.69c0.38,0.22,0.33,0.6-0.11,0.85l-2.77,1.6c-0.44,0.25-1.1,0.28-1.47,0.06l-6.4-3.69
				c-0.38-0.22-0.33-0.6,0.11-0.85l2.77-1.6C305.07,329.23,305.73,329.2,306.11,329.42z"/>
			<path class="st1" d="M297.24,324.3l6.4,3.69c0.38,0.22,0.33,0.6-0.11,0.85l-2.77,1.6c-0.44,0.25-1.1,0.28-1.47,0.06l-6.4-3.69
				c-0.38-0.22-0.33-0.6,0.11-0.85l2.77-1.6C296.21,324.11,296.87,324.08,297.24,324.3z"/>
			<path class="st1" d="M311.01,326.59l6.4,3.69c0.38,0.22,0.33,0.6-0.11,0.85l-2.77,1.6c-0.44,0.25-1.1,0.28-1.47,0.06l-6.4-3.69
				c-0.38-0.22-0.33-0.6,0.11-0.85l2.77-1.6C309.97,326.4,310.63,326.37,311.01,326.59z"/>
		</g>
	</g>
</g>
<g>
	
		<rect x="407.54" y="206.1" transform="matrix(0.2482 0.9687 -0.9687 0.2482 509.3513 -238.7061)" class="st5" width="1.87" height="5.42"/>
	
		<rect x="404.86" y="208.72" transform="matrix(0.2482 0.9687 -0.9687 0.2482 509.869 -234.1451)" class="st5" width="1.87" height="5.42"/>
	
		<rect x="402.18" y="211.33" transform="matrix(0.2482 0.9687 -0.9687 0.2482 510.3867 -229.584)" class="st5" width="1.87" height="5.42"/>
	
		<rect x="399.5" y="213.95" transform="matrix(0.2483 0.9687 -0.9687 0.2483 510.8871 -225.0273)" class="st5" width="1.87" height="5.42"/>
</g>
<g>
	<g>
		<g>
			<polygon class="st6" points="231.75,320.21 231.75,268.97 248.39,259.36 248.39,310.6 			"/>
			<polygon class="st7" points="248.39,259.36 231.75,249.75 215.11,259.36 231.75,268.97 			"/>
			<polygon class="st5" points="231.75,268.97 215.11,259.36 215.11,310.6 231.75,320.21 			"/>
			<polygon class="st2" points="231.75,320.21 231.75,268.97 248.39,259.36 248.39,310.6 			"/>
			<polygon class="st0" points="248.39,259.36 231.75,249.75 215.11,259.36 231.75,268.97 			"/>
		</g>
		<g>
			<polygon class="st1" points="267.07,340.88 267.07,312.05 283.72,302.45 283.72,331.27 			"/>
			<polygon class="st2" points="267.07,312.05 250.43,302.45 250.43,331.27 267.07,340.88 			"/>
			<polygon class="st0" points="283.72,302.45 267.07,292.84 250.43,302.45 267.07,312.05 			"/>
		</g>
		<g>
			<polygon class="st0" points="196.54,300.04 196.54,229.58 213.18,219.97 213.18,290.43 			"/>
			<polygon class="st2" points="196.54,229.58 179.9,219.97 179.9,290.43 196.54,300.04 			"/>
			<polygon class="st5" points="213.18,219.97 196.54,210.37 179.9,219.97 196.54,229.58 			"/>
		</g>
	</g>
</g>
<g>
	<g>
		<path class="st5" d="M186.62,259.8c0,0-2.75-1.39-4.44,0.68c-1.69,2.06-4.1,6.93-4.17,10.23c-0.07,3.29,2.6,3.07,4.2,2.29
			c1.59-0.78,6.25-7.53,6.53-8.85c0.28-1.32-0.33-3.11-0.78-3.46C187.51,260.34,186.62,259.8,186.62,259.8z"/>
		<path class="st0" d="M187.22,259.14l0.13,2.85c0.03,0.61-0.28,1.18-0.8,1.48c-0.48,0.27-1.18,0.48-2.12,0.33
			c-2.07-0.33-2.25-0.92-2.4-3.77S187.22,259.14,187.22,259.14z"/>
		<g>
			<path class="st5" d="M176.57,254.33c0,0-2.75-1.39-4.44,0.68c-1.69,2.06-4.1,6.93-4.17,10.23c-0.07,3.29,2.6,3.07,4.2,2.29
				c1.59-0.78,6.25-7.53,6.53-8.85c0.28-1.32-0.33-3.11-0.78-3.46C177.45,254.86,176.57,254.33,176.57,254.33z"/>
			<path class="st0" d="M177.17,253.67l0.13,2.85c0.03,0.61-0.28,1.18-0.8,1.48c-0.48,0.27-1.18,0.48-2.12,0.33
				c-2.07-0.33-2.25-0.92-2.4-3.77S177.17,253.67,177.17,253.67z"/>
			<path class="st1" d="M201.68,201.4c-0.81-13.23-14.33,1.95-14.33,1.95l-9.25,9.07l-8.33,9.15c-1.63,1.79-2.38,4.2-2.07,6.6
				l3.37,25.66c0.17,1.27,1.25,2.2,2.53,2.19c0.36,0,0.77-0.04,1.25-0.11c3.01-0.47,2.78-3.33,2.78-3.33l-0.62-24l17.49-10.55
				C194.51,218.04,202.5,214.64,201.68,201.4z"/>
		</g>
		<path class="st1" d="M211.74,206.45c-0.81-13.23-14.33,1.95-14.33,1.95l-9.25,9.07l-8.33,9.15c-1.63,1.79-2.38,4.2-2.07,6.6
			l3.37,25.66c0.17,1.27,1.25,2.2,2.53,2.19c0.36,0,0.77-0.04,1.25-0.11c3.01-0.47,2.78-3.33,2.78-3.33l-0.62-24l17.49-10.55
			C204.57,223.08,212.55,219.68,211.74,206.45z"/>
		<path class="st5" d="M203.74,163.97c10.25,4.25,10.04,10.31,10.04,10.31s-2.01,22.21-1.32,37.04c0.29,6.2-32.94,6.67-27.99-9.87
			c5.84-19.5,3.65-35.29,6.39-37.67C193.6,161.39,201.09,162.87,203.74,163.97z"/>
		<path class="st8" d="M207.04,169.34c-0.54,2.08-3.26,3.18-6.09,2.45c-2.83-0.73-4.68-3.01-4.15-5.09
			c0.54-2.08,3.26-3.18,6.09-2.45C205.72,164.98,207.58,167.26,207.04,169.34z"/>
		<path class="st4" d="M202.68,172.5c-0.6,0-1.22-0.08-1.85-0.24c-3.08-0.79-5.1-3.34-4.5-5.68c0.6-2.34,3.6-3.6,6.69-2.8
			c1.47,0.38,2.74,1.16,3.59,2.2c0.88,1.08,1.21,2.32,0.91,3.48C207.04,171.33,205.04,172.5,202.68,172.5z M201.14,164.52
			c-1.9,0-3.49,0.89-3.86,2.31c-0.47,1.82,1.24,3.83,3.8,4.49c2.56,0.66,5.02-0.28,5.49-2.1c0.22-0.85-0.04-1.78-0.72-2.62
			c-0.72-0.88-1.81-1.54-3.08-1.87C202.22,164.59,201.67,164.52,201.14,164.52z"/>
		<path class="st8" d="M199.64,163.51c0,0,0.09,0.41-0.09,3.66c-0.06,1.02,3.52,1.97,4.44,1.05c0.92-0.92,0.55-1.89,0.78-5.36
			C204.99,159.38,199.64,163.51,199.64,163.51z"/>
		<path class="st9" d="M204.77,162.86c0,0-0.88,3.22-5.22,4.46l0.07-2.93L204.77,162.86z"/>
		<path class="st8" d="M207.52,154.67c1.09,4.22-1.44,8.52-5.66,9.61c-4.22,1.09-8.52-1.44-9.61-5.66
			c-1.09-4.22,1.44-8.52,5.66-9.61C202.12,147.92,206.42,150.46,207.52,154.67z"/>
		<path class="st9" d="M201.69,156.94c0,0-4.34,1.86-7.35,1.88c-3.01,0.02-2.34-2.5-2.34-2.5l8.93-1.29L201.69,156.94z"/>
		<path class="st10" d="M193.44,157.43c0,0,3.78-1.61,7.1-0.94c0.78,0.16,1.5,0.57,2.01,1.19c0.16,0.2,0.37,0.39,0.61,0.44
			c0.59,0.13,1.55-2.31,2.7-2.36c1.14-0.06,1.91,0.75,0.97,2.26c-0.94,1.5-0.62,3.18-0.19,3.42s5.01-3.26,0.97-11.26
			c-4.04-8-14.29-3.69-15.89-2.07c0,0-1.68,1.46-3.05,0.16C188.67,148.27,187.14,159.74,193.44,157.43z"/>
		<path class="st8" d="M208.04,190.5v6c0,0.69-0.29,1.34-0.8,1.81l-12.33,11.24l1.4,2.14l16.28-11.81c0.76-0.55,1.25-1.4,1.35-2.33
			l1.1-10.47L208.04,190.5z"/>
		<path class="st5" d="M212.92,171.28c0,0,3.74,5.62,5.13,20.43c0,0-6.39,2.07-10.01,0.89
			C204.41,191.43,212.92,171.28,212.92,171.28z"/>
		<path class="st2" d="M207.36,178.39c0,0-1.46,7.84-1.55,11.52c-0.02,1.01,0.6,1.93,1.55,2.27l0,0V178.39z"/>
	</g>
	<g>
		<path class="st5" d="M204.16,217.35l-2.72-0.36l-17.59-10.15c-0.56-0.33-1.55-0.28-2.2,0.09l-12.46,7.19l-1.65-0.22v1.64l0,0
			c-0.01,0.22,0.11,0.42,0.38,0.58l19.93,11.51c0.56,0.33,1.55,0.28,2.2-0.09l13.57-7.83c0.37-0.21,0.55-0.48,0.54-0.74l0,0V217.35z
			"/>
		<path class="st2" d="M190.94,210.93l-1.25-0.72h-13.74l-6.77,3.91l-1.65-0.22v1.64l0,0c-0.01,0.22,0.11,0.42,0.38,0.58
			l19.93,11.51c0.3,0.17,0.71,0.24,1.14,0.21L190.94,210.93z"/>
		<path class="st5" d="M168.27,214l-0.73-0.1v1.64l0,0c-0.01,0.22,0.11,0.42,0.38,0.58l0.35,0.2V214z"/>
		<path class="st4" d="M188.05,227.72c0.53,0.2,1.3,0.16,1.87-0.12v-2.79h-1.87V227.72z"/>
		<path class="st4" d="M187.85,225.99l-19.93-11.51c-0.56-0.33-0.49-0.89,0.16-1.27l13.57-7.83c0.65-0.38,1.64-0.42,2.2-0.09
			l19.93,11.51c0.56,0.33,0.49,0.89-0.16,1.27l-13.57,7.83C189.4,226.27,188.41,226.32,187.85,225.99z"/>
		<path class="st0" d="M187.51,224.25l-16.57-9.57c-0.47-0.27-0.41-0.74,0.13-1.06l7.27-4.09c0.54-0.31,1.36-0.35,1.83-0.08
			l16.57,9.57c0.47,0.27,0.41,0.74-0.13,1.06l-7.27,4.09C188.8,224.48,187.98,224.52,187.51,224.25z"/>
	</g>
	<path class="st8" d="M182.42,205l-0.21,1.38c-0.18,1.17-0.15,2.37,0.09,3.53l0.25,1.21c0.14,0.68,0.68,1.21,1.37,1.34l0,0
		c0.54,0.1,1.04-0.28,1.1-0.82l0.33-2.94c0,0,0.75,0.99,1.12,0.99c0.36,0-0.41-2.94-1.23-4.61C184.41,203.4,182.42,205,182.42,205z"
		/>
	<path class="st8" d="M189.17,183.14l-2.14,4.23c-0.51,1-0.8,2.09-0.88,3.21l-0.93,14.48l-2.81-0.07l-1.28-16.26
		c-0.04-0.5-0.01-1.01,0.07-1.5l1.46-8.25L189.17,183.14z"/>
	<g>
		<path class="st1" d="M187.17,227.09l-1.67-2.18l-17.58-10.18c-0.56-0.33-1.02-1.2-1.02-1.95l0.02-14.39l-1.01-1.32l0.95-0.55l0,0
			c0.18-0.12,0.42-0.11,0.69,0.04l19.92,11.53c0.56,0.33,1.02,1.2,1.02,1.95l-0.02,15.67c0,0.42-0.15,0.72-0.37,0.84l0,0
			L187.17,227.09z"/>
		<path class="st2" d="M175.02,218.84l-1.25-0.72l-6.85-11.91l0.01-7.82l-1.01-1.32l0.95-0.55l0,0c0.18-0.12,0.42-0.11,0.69,0.04
			l19.92,11.53c0.3,0.17,0.56,0.5,0.75,0.88L175.02,218.84z"/>
		<path class="st5" d="M166.36,197.66l-0.45-0.59l0.95-0.55l0,0c0.18-0.12,0.42-0.11,0.69,0.04l0.35,0.2L166.36,197.66z"/>
		<path class="st3" d="M187.65,208.23c0.44,0.36,0.79,1.05,0.83,1.68l-1.95,1.12l-0.93-1.62L187.65,208.23z"/>
		<path class="st5" d="M186.52,208.65l-19.92-11.53c-0.56-0.33-1.02,0.02-1.02,0.77l-0.02,15.67c0,0.75,0.46,1.63,1.02,1.95
			l19.92,11.53c0.56,0.33,1.02-0.02,1.02-0.77l0.02-15.67C187.54,209.85,187.08,208.98,186.52,208.65z"/>
	</g>
	<path class="st8" d="M196.31,211.69l-0.32,0.66c-0.37,0.76-0.95,1.4-1.66,1.85l-1.98,1.22c-0.62,0.38-1.39,0.41-2.02,0.05
		c-0.02-0.01-0.04-0.03-0.07-0.04c-0.63-0.39-0.69-1.3-0.17-1.83l2.07-2.13c0,0-1.16,0.89-1.49,0.53c-0.24-0.26,1.13-1.54,2.17-1.59
		c1.05-0.04,2.06-0.87,2.06-0.87L196.31,211.69z"/>
	<path class="st5" d="M191.07,163.74c0,0-7.58,8.25-10.64,15.81c0,0,2.59,4.67,8.94,6.5C195.72,187.89,191.07,163.74,191.07,163.74z
		"/>
	<path class="st2" d="M187.94,185.57l1.23-11.87l-2.89,11.12C186.79,185.09,187.35,185.34,187.94,185.57z"/>
	<path class="st4" d="M196.75,162.08l-2.04-0.56c0,0,0.97,1.53,2.39,1.92c1.42,0.39,1.64-0.81,1.64-0.81L196.75,162.08z"/>
</g>
<g>
	<path class="st0" d="M178.88,371.8c-13.7-7.91-35.91-7.91-49.61,0c-13.7,7.91-13.7,20.73,0,28.64c13.7,7.91,35.91,7.91,49.61,0
		C192.58,392.53,192.58,379.71,178.88,371.8z M165.47,392.7c-6.3,3.64-16.51,3.64-22.8,0c-6.3-3.64-6.3-9.53,0-13.17
		c6.3-3.64,16.51-3.64,22.8,0C171.77,383.17,171.77,389.07,165.47,392.7z"/>
	<g>
		<g>
			<path class="st1" d="M124.09,367.11l12.51,0.2c0.93-1.21,2.24-2.33,3.95-3.32c6.88-3.97,17.7-4.28,25.2-0.93l7.44-6.99
				l11.45,0.18c-0.57-0.37-1.15-0.74-1.76-1.09c-15.91-9.19-41.71-9.19-57.62,0c-2.93,1.69-5.31,3.57-7.16,5.58L124.09,367.11z"/>
			<polygon class="st5" points="184.64,338.07 184.64,356.25 173.19,356.07 173.19,337.9 			"/>
			<polygon class="st1" points="165.76,344.89 165.76,363.06 173.19,356.07 173.19,337.9 			"/>
			<path class="st1" d="M136.61,349.14v18.17l16.46-13.41l12.69,9.16v-18.17l-11.68-5.67c0,0-16.08,4.92-16.92,5.13
				C136.32,344.56,136.61,349.14,136.61,349.14z"/>
			<polygon class="st1" points="124.09,348.94 124.09,367.11 136.61,367.31 136.61,349.14 			"/>
			<polygon class="st5" points="118.1,342.56 118.1,360.73 124.09,367.11 124.09,348.94 			"/>
			<path class="st0" d="M124.09,348.94l12.51,0.2c0.93-1.21,2.24-2.33,3.95-3.32c6.88-3.97,17.7-4.28,25.2-0.93l7.44-6.99
				l11.45,0.18c-0.57-0.37-1.15-0.74-1.76-1.09c-15.91-9.19-41.71-9.19-57.62,0c-2.93,1.69-5.31,3.57-7.16,5.58L124.09,348.94z"/>
		</g>
		<g>
			<path class="st5" d="M169.53,347.12v16.7l10.83-2.59c0,0-0.64-9.77-0.87-10.04C179.26,350.94,169.53,347.12,169.53,347.12z"/>
			<g>
				<path class="st1" d="M161.33,363.83V382l1.17,1.25l7.64-4.4c0,0-1.18-13.87-1.32-14.15
					C168.67,364.41,161.33,363.83,161.33,363.83z"/>
				<path class="st2" d="M176.07,359.14l-6.55,6.16c5.45,4.32,4.81,10.4-1.94,14.3c-1.85,1.07-3.98,1.87-6.26,2.41l6.77,7.21
					l-6,5.64c7.61-0.88,14.88-3.02,20.78-6.43c13.68-7.9,15.59-20.01,5.75-29.09L176.07,359.14z"/>
				<polygon class="st2" points="162.1,376.68 162.1,394.85 176.95,389.12 194.81,372.08 194.74,352.78 175.85,367.76 				"/>
				<path class="st0" d="M176.07,340.97l-6.55,6.16c5.45,4.32,4.81,10.4-1.94,14.3c-1.85,1.07-3.98,1.87-6.26,2.41l6.77,7.21
					l-6,5.64c7.61-0.88,14.88-3.02,20.78-6.43c13.68-7.9,15.59-20.01,5.75-29.09L176.07,340.97z"/>
			</g>
		</g>
		<g>
			<path class="st2" d="M162.05,389.12l-5.97-6.36c-5.54,0.34-11.28-0.72-15.53-3.17c-4.38-2.53-6.19-5.99-5.42-9.28l-14.21-0.22
				l-5.46-5.82c-4.78,8.2-1.52,17.62,9.8,24.15c8.31,4.8,19.33,7.09,30.22,6.87L162.05,389.12z"/>
			<polygon class="st2" points="155.48,377.12 155.48,395.29 113.34,371.94 113.34,353.76 119.49,356.25 			"/>
			<polygon class="st1" points="162.05,370.94 162.05,389.12 155.48,395.29 155.48,377.12 			"/>
			<path class="st5" d="M162.05,370.94l-5.97-6.36c-5.54,0.34-11.28-0.72-15.53-3.17c-4.38-2.53-6.19-5.99-5.42-9.28l-14.21-0.22
				l-5.46-5.82c-4.78,8.2-1.52,17.62,9.8,24.15c8.31,4.8,19.33,7.09,30.22,6.87L162.05,370.94z"/>
		</g>
	</g>
</g>
<g>
	<path class="st5" d="M186.67,124.88l1.08-1.84c0,0,0.9,0.5,1.88,0.19c0.78-0.24,1.45-0.95,2-2.08c1.94-4.01,5.51-4.32,7.13-3.92
		l-0.51,2.07l0.26-1.04l-0.25,1.04c-0.31-0.07-3.08-0.6-4.7,2.77c-0.82,1.71-1.94,2.79-3.32,3.21
		C188.38,125.84,186.84,124.98,186.67,124.88z"/>
</g>
<path class="st0" d="M152.74,194.88c-5.39,0-9.78-4.39-9.78-9.78c0-5.39,4.39-9.78,9.78-9.78c5.39,0,9.78,4.39,9.78,9.78
	C162.52,190.49,158.14,194.88,152.74,194.88z M152.74,177.45c-4.22,0-7.65,3.43-7.65,7.65c0,4.22,3.43,7.65,7.65,7.65
	c4.22,0,7.65-3.43,7.65-7.65C160.39,180.88,156.96,177.45,152.74,177.45z"/>
<path class="st5" d="M95.36,329.98c-3.82,0-6.93-3.11-6.93-6.93c0-3.82,3.11-6.93,6.93-6.93c3.82,0,6.93,3.11,6.93,6.93
	C102.3,326.86,99.19,329.98,95.36,329.98z M95.36,318.24c-2.65,0-4.8,2.15-4.8,4.8c0,2.65,2.15,4.8,4.8,4.8s4.8-2.15,4.8-4.8
	C100.16,320.39,98.01,318.24,95.36,318.24z"/>
<path class="st5" d="M138.42,252.09l-4.71-9.57l9.57-4.71l4.71,9.57L138.42,252.09z M136.57,243.49l2.82,5.74l5.74-2.82l-2.82-5.74
	L136.57,243.49z"/>
<rect x="370.71" y="148.03" transform="matrix(0.8974 -0.4412 0.4412 0.8974 -28.1107 180.0736)" class="st5" width="4.9" height="4.9"/>
<g>
	
		<rect x="280.88" y="94.27" transform="matrix(0.7071 -0.7071 0.7071 0.7071 16.3375 230.1166)" class="st0" width="10.14" height="2.13"/>
	
		<rect x="284.88" y="90.27" transform="matrix(0.7071 -0.7071 0.7071 0.7071 16.3384 230.1185)" class="st0" width="2.13" height="10.14"/>
</g>
<path class="st0" d="M362.23,98.92c0,2.78-2.25,5.03-5.03,5.03c-2.78,0-5.03-2.25-5.03-5.03c0-2.78,2.25-5.03,5.03-5.03
	C359.98,93.89,362.23,96.14,362.23,98.92z"/>
<path class="st0" d="M226.76,380.87c0,1.62-1.31,2.93-2.93,2.93c-1.62,0-2.93-1.31-2.93-2.93c0-1.62,1.31-2.93,2.93-2.93
	C225.45,377.94,226.76,379.25,226.76,380.87z"/>
<g>
	<g>
		<path class="st11" d="M129.87,266.41l-21.42-12.37c-0.42-0.24-0.81-0.25-1.11-0.09c0,0,0-0.01,0-0.01l-2.08,1.2
			c0,0,0.92,0.34,1.46,0.53v15.6c0,1.27,0.77,2.74,1.72,3.29l20.47,11.82v1.83l2.1-1.21l-0.01,0c0.35-0.22,0.58-0.69,0.58-1.37
			V269.7C131.59,268.44,130.82,266.96,129.87,266.41z"/>
		<path class="st10" d="M127.76,288.15l-21.42-12.37c-0.95-0.55-1.72-2.02-1.72-3.29v-15.93c0-1.27,0.77-1.85,1.72-1.3l21.42,12.37
			c0.95,0.55,1.72,2.02,1.72,3.29v15.93C129.48,288.12,128.71,288.7,127.76,288.15z"/>
	</g>
	<g>
		<path class="st4" d="M113.54,270.3c0,0.92-0.65,1.3-1.45,0.83c-0.8-0.46-1.45-1.58-1.45-2.5c0-0.92,0.65-1.3,1.45-0.83
			C112.89,268.26,113.54,269.38,113.54,270.3z"/>
		<path class="st4" d="M117.92,272.83c0,0.92-0.65,1.3-1.45,0.83c-0.8-0.46-1.45-1.58-1.45-2.5s0.65-1.3,1.45-0.83
			C117.27,270.78,117.92,271.91,117.92,272.83z"/>
		<path class="st4" d="M122.3,275.35c0,0.92-0.65,1.3-1.45,0.83c-0.8-0.46-1.45-1.58-1.45-2.5c0-0.92,0.65-1.3,1.45-0.83
			C121.65,273.31,122.3,274.43,122.3,275.35z"/>
	</g>
</g>
<g>
	<g>
		<path class="st5" d="M335.28,120.1l-21.42-12.37c-0.42-0.24-0.81-0.25-1.11-0.09c0,0,0-0.01,0-0.01l-2.08,1.2
			c0,0,0.92,0.34,1.46,0.53v15.6c0,1.27,0.77,2.74,1.72,3.29l20.47,11.82v1.83l2.1-1.21l-0.01,0c0.35-0.22,0.58-0.69,0.58-1.37
			V123.4C337,122.13,336.23,120.65,335.28,120.1z"/>
		<path class="st0" d="M333.16,141.84l-21.42-12.37c-0.95-0.55-1.72-2.02-1.72-3.29v-15.93c0-1.27,0.77-1.85,1.72-1.3l21.42,12.37
			c0.95,0.55,1.72,2.02,1.72,3.29v15.93C334.88,141.81,334.11,142.39,333.16,141.84z"/>
	</g>
	<g>
		<path class="st4" d="M318.95,123.99c0,0.92-0.65,1.3-1.45,0.83c-0.8-0.46-1.45-1.58-1.45-2.5c0-0.92,0.65-1.3,1.45-0.83
			C318.3,121.95,318.95,123.07,318.95,123.99z"/>
		<path class="st4" d="M323.32,126.52c0,0.92-0.65,1.3-1.45,0.83c-0.8-0.46-1.45-1.58-1.45-2.5c0-0.92,0.65-1.3,1.45-0.83
			C322.68,124.48,323.32,125.6,323.32,126.52z"/>
		<path class="st4" d="M327.7,129.04c0,0.92-0.65,1.3-1.45,0.83s-1.45-1.58-1.45-2.5c0-0.92,0.65-1.3,1.45-0.83
			S327.7,128.12,327.7,129.04z"/>
	</g>
</g>
<g>
	<polygon class="st0" points="333.38,387.9 345.96,380.64 358.53,387.9 345.96,395.16 	"/>
	<polygon class="st0" points="360.07,372.28 372.65,365.02 385.22,372.28 372.65,379.54 	"/>
	<polygon class="st0" points="386.68,357.04 399.26,349.78 411.83,357.04 399.26,364.3 	"/>
	<g>
		<g>
			<g>
				<polygon class="st6" points="372.65,372.28 372.65,333.56 360.07,326.3 360.07,365.02 				"/>
				<polygon class="st11" points="372.65,333.56 385.22,326.3 385.22,365.02 372.65,372.28 				"/>
				<polygon class="st10" points="372.65,372.28 372.65,333.56 360.07,326.3 360.07,365.02 				"/>
			</g>
			<g>
				<polygon class="st10" points="345.96,387.9 345.96,366.12 333.38,358.86 333.38,380.64 				"/>
				<polygon class="st11" points="345.96,366.12 358.53,358.86 358.53,380.64 345.96,387.9 				"/>
				<polygon class="st10" points="333.38,358.86 345.96,351.6 358.53,358.86 345.96,366.12 				"/>
			</g>
			<g>
				<polygon class="st10" points="399.26,357.04 399.26,303.8 386.68,296.54 386.68,349.78 				"/>
				<polygon class="st11" points="399.26,303.8 411.83,296.54 411.83,349.78 399.26,357.04 				"/>
				<polygon class="st10" points="386.68,296.54 399.26,289.28 411.83,296.54 399.26,303.8 				"/>
			</g>
		</g>
		<polygon class="st10" points="360.07,326.3 372.65,319.04 385.22,326.3 372.65,333.56 		"/>
	</g>
</g>
</svg>
