<?xml version="1.0" encoding="utf-8"?>
<!-- Generator: Adobe Illustrator 24.0.0, SVG Export Plug-In . SVG Version: 6.00 Build 0)  -->
<svg version="1.1" id="Layer_1" xmlns="http://www.w3.org/2000/svg" xmlns:xlink="http://www.w3.org/1999/xlink" x="0px" y="0px"
	 viewBox="0 0 1024 1024" style="enable-background:new 0 0 1024 1024;" xml:space="preserve">
<style type="text/css">
	.st0{fill:#F5F5F5;}
	.st1{fill:#E1E1E1;}
	.st2{display:none;}
	.st3{display:inline;fill:#00DFBF;}
	.st4{fill:#B93232;}
	.st5{fill:#FFFFFF;}
	.st6{fill:#FF4444;}
	.st7{fill:#2B454E;}
	.st8{fill:#F0F0F0;}
	.st9{fill:#375A64;}
	.st10{fill:#FAFAFA;}
	.st11{fill:#E7E7E7;}
	.st12{fill:#C32828;}
	.st13{display:none;fill:#00DFBF;}
	.st14{fill:#FF8585;}
	.st15{fill:#DD4646;}
	.st16{fill:#1A2E35;}
</style>
<path id="Floor_14_" class="st0" d="M180.19,861.62c183.24,93.68,480.33,93.69,663.56,0c183.24-93.69,183.24-245.58,0-339.26
	c-183.24-93.69-480.33-93.69-663.57,0C-3.05,616.04-3.05,767.94,180.19,861.62z"/>
<polyline id="Shadow_34_" class="st1" points="402.61,758.07 303.69,701.35 434.04,628.03 403.22,759.11 "/>
<path id="Shadow_33_" class="st1" d="M586.54,707.25l88.09,50.86c5.85,3.38,15.33,3.38,21.18,0l177.5-102.48
	c5.85-3.38,5.85-8.85,0-12.23l-88.09-50.86c-5.85-3.38-15.33-3.38-21.18,0l-177.5,102.48C580.69,698.4,580.69,703.88,586.54,707.25z
	"/>
<g id="XMLID_103_" class="st2">
	<path id="XMLID_104_" class="st3" d="M258.08,668.36c-1.29-16.05-8.64-42.42-27.3-67.51c-19.97-26.85-44.32-43.65-62.41-35.79
		c-16.85,7.32-10.46,30.57,18.53,53.51c20.35,16.1,41.45,37.04,52.78,62.33l18.4,32.18V668.36z"/>
</g>
<g id="XMLID_101_">
	<path id="XMLID_102_" class="st4" d="M258.08,668.36c-1.29-16.05-8.64-42.42-27.3-67.51c-19.97-26.85-44.32-43.65-62.41-35.79
		c-16.85,7.32-10.46,30.57,18.53,53.51c20.35,16.1,41.45,37.04,52.78,62.33l18.4,32.18V668.36z"/>
</g>
<g id="XMLID_99_">
	<path id="XMLID_100_" class="st5" d="M256.45,680.59c-0.47,0-0.9-0.29-1.07-0.75c-16.16-44.5-49.82-89.53-78.29-104.74
		c-0.56-0.3-0.77-0.99-0.47-1.54c0.3-0.56,0.99-0.76,1.54-0.47c28.91,15.45,63.02,61.01,79.36,105.98c0.22,0.59-0.09,1.25-0.68,1.46
		C256.71,680.57,256.58,680.59,256.45,680.59z"/>
</g>
<path id="XMLID_98_" class="st6" d="M256.45,723.21c0,0-11.91,10.58-32.2,13.79c-20.29,3.21-29.24-6.49-29.24-6.49
	s7.99-19.03,19.51-24.37c0,0-19.54,3.98-35.22,14.44c0,0-12.39,0.19-17.32-18.72c0,0,7.34-11.38,31.97-17.53
	c0,0-14.98-3.77-36.58,1.74c-1.62,0.64-8.52-23.81-10.61-35.09c-2.09-11.28,2.45-11.16,11.24-13.51c8.79-2.35,38.74-3.82,44.24,1.01
	c5.5,4.84,8.3,21.37,8.3,21.37s5.27-9.36,4-17.71c0,0,8.83-3,18.71,0.45c9.88,3.44,9.25,8.26,9.25,15.45
	c0,7.69-0.76,12.79-2.96,21.4c0,0,6.82-5.9,7.06-27.66c0,0,13.35,11.43,18.71,21.25C270.69,682.86,269.33,708.55,256.45,723.21z"/>
<g id="XMLID_96_">
	<path id="XMLID_97_" class="st5" d="M256.45,724.35c-0.42,0-0.83-0.24-1.03-0.65c-16.37-34.02-77.25-73.54-99.05-77.78
		c-0.62-0.12-1.02-0.72-0.9-1.34c0.12-0.62,0.73-1.02,1.34-0.9c22.16,4.31,84.04,44.48,100.67,79.04c0.27,0.57,0.04,1.25-0.53,1.52
		C256.79,724.32,256.62,724.35,256.45,724.35z"/>
</g>
<g id="Folder_1_">
	<g id="XMLID_2960_">
		<polygon id="XMLID_3092_" class="st7" points="252.24,362.37 252.24,732.99 598.11,533.31 598.11,198.82 361.84,335.1 
			352.97,304.09 		"/>
	</g>
	<g id="XMLID_2956_">
		<polygon id="XMLID_2958_" class="st8" points="252.24,732.99 269.98,407.55 615.84,207.86 598.11,533.31 		"/>
	</g>
	<g id="XMLID_2933_">
		<polygon id="XMLID_2954_" class="st9" points="252.24,732.99 283.56,416.61 629.42,216.92 598.11,533.31 		"/>
	</g>
</g>
<g id="XMLID_2932_">
	<g id="XMLID_2965_">
		<path id="XMLID_2966_" class="st10" d="M401.96,759.52c-0.96,0-1.1-1.11-1.1-1.77V281.6c0-2.23,1.64-5.07,3.57-6.18l334.15-192.8
			c0.46-0.27,0.9-0.41,1.26-0.41c0.96,0,1.11,1.11,1.11,1.77v476.15c0,2.23-1.63,5.07-3.57,6.18l-334.15,192.8
			C402.75,759.38,402.32,759.52,401.96,759.52z"/>
	</g>
	<g id="XMLID_2961_">
		<path id="XMLID_2962_" class="st11" d="M739.67,83.44c0.03,0.12,0.06,0.29,0.06,0.54v476.15c0,1.79-1.41,4.24-2.97,5.14
			l-334.15,192.8c-0.22,0.13-0.39,0.19-0.5,0.22c-0.03-0.12-0.06-0.29-0.06-0.54V281.6c0-1.79,1.42-4.24,2.97-5.14l334.15-192.8
			C739.39,83.53,739.56,83.47,739.67,83.44 M739.83,81c-0.56,0-1.19,0.18-1.86,0.57l-334.15,192.8c-2.3,1.33-4.17,4.57-4.17,7.23
			v476.15c0,1.89,0.94,2.98,2.31,2.98c0.56,0,1.19-0.18,1.86-0.57l334.15-192.8c2.3-1.33,4.17-4.57,4.17-7.23V83.98
			C742.14,82.09,741.2,81,739.83,81L739.83,81z"/>
	</g>
</g>
<g id="XMLID_2922_">
	<polygon id="XMLID_2959_" class="st6" points="429,293.73 526.86,237.23 526.86,350.23 429.01,406.72 	"/>
</g>
<g id="XMLID_2916_">
	<g id="XMLID_2918_">
		<path id="XMLID_2957_" class="st10" d="M512.18,265.48v33.9l-3.07,1.71c0,0,0-4.65,0-10.39c0-5.74-4.67-7.69-10.43-4.36
			l-41.51,23.96c-5.76,3.33-10.43,10.67-10.43,16.41v10.39l-3.06,1.83l0-33.9L512.18,265.48z"/>
	</g>
	<g id="XMLID_2917_">
		<path id="XMLID_2955_" class="st10" d="M493.31,351.87c-5.02,2.9-9.09-0.14-9.09-6.8v-54.37l-12.57,6.84v54.79
			c0,6.65-4.07,14.39-9.09,17.29l-9.09,5.25v3.6l48.93-28.25v-3.6C502.4,346.63,498.33,348.98,493.31,351.87z"/>
	</g>
</g>
<g id="XMLID_14283_">
	<g id="XMLID_2860_">
		<path id="XMLID_2951_" class="st1" d="M546.43,231.58c0,3.12,2.8,4.03,6.26,2.04l153.83-88.7c3.46-2,6.26-6.14,6.26-9.26
			c0-3.12-2.8-4.03-6.26-2.04l-153.84,88.7C549.23,224.31,546.43,228.46,546.43,231.58z"/>
	</g>
	<g id="XMLID_2859_">
		<path id="XMLID_2949_" class="st1" d="M546.43,265.48c0,3.12,2.8,4.03,6.26,2.04l153.83-88.7c3.46-2,6.26-6.14,6.26-9.26
			c0-3.12-2.8-4.03-6.26-2.04l-153.84,88.7C549.23,258.21,546.43,262.36,546.43,265.48z"/>
	</g>
	<g id="XMLID_14295_">
		<path id="XMLID_2947_" class="st1" d="M546.43,299.38c0,3.12,2.8,4.03,6.26,2.04l153.83-88.7c3.46-2,6.26-6.14,6.26-9.26
			c0-3.12-2.8-4.03-6.26-2.04l-153.84,88.7C549.23,292.11,546.43,296.26,546.43,299.38z"/>
	</g>
	<g id="XMLID_14294_">
		<path id="XMLID_2945_" class="st1" d="M546.43,333.28c0,3.12,2.8,4.03,6.26,2.04l153.83-88.7c3.46-2,6.26-6.14,6.26-9.26
			c0-3.12-2.8-4.03-6.26-2.04l-153.84,88.7C549.23,326.01,546.43,330.16,546.43,333.28z"/>
	</g>
</g>
<g id="XMLID_14293_">
	<g id="XMLID_2858_">
		<path id="XMLID_2941_" class="st1" d="M429,434.98c0,3.12,2.8,4.03,6.26,2.04l271.26-156.5c3.46-2,6.26-6.14,6.26-9.26
			c0-3.12-2.8-4.03-6.26-2.04l-271.26,156.5C431.81,427.71,429,431.86,429,434.98z"/>
	</g>
	<g id="XMLID_2857_">
		<path id="XMLID_2939_" class="st1" d="M429,468.88c0,3.12,2.8,4.03,6.26,2.04l271.26-156.5c3.46-2,6.26-6.14,6.26-9.26
			c0-3.12-2.8-4.03-6.26-2.04l-271.26,156.5C431.81,461.61,429,465.76,429,468.88z"/>
	</g>
	<g id="XMLID_2856_">
		<path id="XMLID_2937_" class="st1" d="M429,502.78c0,3.12,2.8,4.03,6.26,2.04l271.26-156.5c3.46-2,6.26-6.14,6.26-9.26
			c0-3.12-2.8-4.03-6.26-2.04l-271.26,156.5C431.81,495.51,429,499.66,429,502.78z"/>
	</g>
	<g id="XMLID_2934_">
		<path id="XMLID_2935_" class="st1" d="M429,536.67c0,3.12,2.8,4.03,6.26,2.04l271.26-156.5c3.46-2,6.26-6.14,6.26-9.26
			s-2.8-4.03-6.26-2.04l-271.26,156.5C431.81,529.4,429,533.55,429,536.67z"/>
	</g>
	<g id="XMLID_2936_">
		<path id="XMLID_2938_" class="st1" d="M429,570.56c0,3.12,2.8,4.03,6.26,2.04l271.26-156.5c3.46-2,6.26-6.14,6.26-9.26
			c0-3.12-2.8-4.03-6.26-2.04L435.26,561.3C431.81,563.29,429,567.44,429,570.56z"/>
	</g>
	<g id="XMLID_2940_">
		<path id="XMLID_2943_" class="st1" d="M429,604.45c0,3.12,2.8,4.03,6.26,2.04l271.26-156.5c3.46-2,6.26-6.14,6.26-9.26
			c0-3.12-2.8-4.03-6.26-2.04l-271.26,156.5C431.81,597.19,429,601.33,429,604.45z"/>
	</g>
	<g id="XMLID_2944_">
		<path id="XMLID_2946_" class="st1" d="M429,638.35c0,3.12,2.8,4.03,6.26,2.04l271.26-156.5c3.46-2,6.26-6.14,6.26-9.26
			c0-3.12-2.8-4.03-6.26-2.04l-271.26,156.5C431.81,631.08,429,635.22,429,638.35z"/>
	</g>
	<g id="XMLID_2948_">
		<path id="XMLID_2950_" class="st1" d="M429,672.24c0,3.12,2.8,4.03,6.26,2.04l271.26-156.5c3.46-2,6.26-6.14,6.26-9.26
			c0-3.12-2.8-4.03-6.26-2.04l-271.26,156.5C431.81,664.97,429,669.12,429,672.24z"/>
	</g>
	<g id="XMLID_2952_">
		<path id="XMLID_2953_" class="st1" d="M429,706.13c0,3.12,2.8,4.03,6.26,2.04l271.26-156.5c3.46-2,6.26-6.14,6.26-9.26
			c0-3.12-2.8-4.03-6.26-2.04l-271.26,156.5C431.81,698.86,429,703.01,429,706.13z"/>
	</g>
</g>
<path id="XMLID_32_" class="st12" d="M846.78,462c0-19.76,9.9-33.97,9.9-33.97v-19.17c0-2.49-0.82-4.27-2.16-5.21l0,0l0,0
	c-0.19-0.13-0.39-0.25-0.59-0.34l-62.31-35.98c-0.02-0.01-0.03-0.02-0.05-0.03l-0.06-0.04l0,0.01c-1.5-0.82-3.55-0.68-5.81,0.63
	l-49.03,28.31c-4.61,2.66-7.9,9.13-8.11,14.44c-0.56,14.04-5.15,40.03-29.94,54.34c-24.96,14.41-29.45-6.65-29.96-20.04
	c-0.2-5.32-3.49-7.47-8.1-4.81l-49.03,28.31c-4.61,2.66-8.34,9.13-8.34,14.45v19.17c0,0,9.9,2.77,9.9,22.53
	c0,19.77-15.31,55.65-15.31,105.42c0,24.92,7.9,45.74,24.5,55.3l0,0l62.33,35.96l0.01-0.01c16.54,9.73,41.82,8.17,76.65-11.94
	c69.32-40.02,100.84-109.84,100.84-159.61S846.78,481.77,846.78,462z"/>
<path id="XMLID_31_" class="st13" d="M785.69,367.89l-49.03,28.31c-4.61,2.66-7.9,9.13-8.11,14.45
	c-0.52,12.93-4.45,36.02-24.48,50.74l-37.72-21.78l-0.19-0.12c-1.41-0.81-3.35-0.67-5.61,0.64l-49.05,28.31
	c-0.67,0.39-1.31,0.85-1.93,1.39c-1.54,1.29-2.91,2.97-3.97,4.84c-1.5,2.62-2.45,5.57-2.45,8.23v19.18
	c0.04,0.02,2.72,1.56,2.72,1.56c2.97,2.41,7.19,8.06,7.19,20.97c0,19.77-15.3,55.66-15.3,105.42c0,24.92,7.9,45.75,24.5,55.31
	l62.18,35.87c-16.29-9.67-24.03-30.33-24.03-55.02c0-49.76,15.3-85.65,15.3-105.42c0-19.77-9.91-22.53-9.91-22.53v-19.18
	c0-2.66,0.92-5.61,2.45-8.23c1.5-2.62,3.6-4.9,5.9-6.22l49.05-28.31c2.16-1.25,4.03-1.45,5.42-0.73l0.19,0.1
	c1.48,0.85,2.37,2.72,2.49,5.43c0.5,13.39,4.99,34.46,29.95,20.04c24.79-14.31,29.39-40.3,29.95-54.34
	c0.21-5.32,3.5-11.78,8.11-14.44l49.03-28.31c2.16-1.25,4.12-1.43,5.59-0.73l-62.29-35.98C790.01,366.44,787.94,366.6,785.69,367.89
	z"/>
<path id="XMLID_30_" class="st14" d="M605.88,503.64l0.04,0.02c0.01,0.01,0.03,0.02,0.04,0.03l59.85,34.54v-19.18
	c0-2.66,0.92-5.61,2.45-8.23c0,0,0,0,0,0l-62.65-36.15c-1.5,2.62-2.44,5.56-2.44,8.22l0,19.18l0.04,0.02L605.88,503.64z"/>
<path id="XMLID_29_" class="st15" d="M704.07,461.4l-37.72-21.78l-0.19-0.12c-1.41-0.81-3.35-0.67-5.61,0.64l-49.05,28.31
	c-0.67,0.39-1.31,0.85-1.93,1.39c-1.54,1.29-2.91,2.97-3.97,4.84l62.64,36.15c1.5-2.62,3.6-4.9,5.9-6.22l49.05-28.31
	c2.16-1.25,4.03-1.45,5.42-0.73L704.07,461.4z"/>
<path id="XMLID_28_" class="st15" d="M853.92,403.31l-62.29-35.98c-1.62-0.89-3.68-0.73-5.94,0.56l-49.03,28.31
	c-2.3,1.33-4.28,3.61-5.7,6.22l62.64,36.15c1.42-2.61,3.4-4.89,5.7-6.21l49.03-28.31C850.49,402.79,852.45,402.62,853.92,403.31z"/>
<path id="XMLID_27_" class="st14" d="M793.6,438.56c-1.43,2.6-2.29,5.57-2.41,8.23c-0.56,14.05-5.16,40.03-29.95,54.35
	c-24.96,14.42-29.45-6.65-29.95-20.04c-0.12-2.72-1-4.59-2.49-5.43l-0.19-0.1l-24.54-14.17c20.02-14.72,23.96-37.81,24.48-50.74
	c0.1-2.66,0.98-5.61,2.41-8.23L793.6,438.56z"/>
<path id="XMLID_26_" class="st15" d="M684.44,721.2l-62.18-35.87c-16.59-9.56-24.5-30.39-24.5-55.31c0-49.76,15.3-85.65,15.3-105.42
	c0-12.8-4.14-18.46-7.11-20.91l59.85,34.54c0,0,9.91,2.76,9.91,22.53c0,19.77-15.3,55.66-15.3,105.42
	C660.41,690.87,668.15,711.53,684.44,721.2z"/>
<g id="XMLID_21_">
	<path id="XMLID_24_" class="st9" d="M775.47,636.01l-26.83,15.49l4.16-48.54c-3.21-1.7-5.25-5.87-5.25-11.87
		c0-10.69,6.5-23.1,14.51-27.73c8.01-4.63,14.51,0.29,14.51,10.97c0,6-2.04,12.53-5.25,17.93L775.47,636.01z"/>
	<polygon id="XMLID_23_" class="st7" points="775.47,636.01 751.17,621.98 748.64,651.5 	"/>
	<path id="XMLID_22_" class="st7" d="M762.05,563.36c-5.24,3.03-9.83,9.39-12.38,16.42l21.63,12.49l0-0.01
		c3.21-5.4,5.25-11.94,5.25-17.93C776.57,563.65,770.07,558.74,762.05,563.36z"/>
</g>
<g id="XMLID_18_">
	<path id="XMLID_20_" class="st7" d="M792.37,281.19c-13.26-7.65-29.94-6.8-45.77,2.34l-58.49,33.77
		c-25.35,14.63-44.46,47.74-44.46,77.01v78.96l0,0c0,3.27,2.18,6.54,6.5,9.04c8.65,4.99,22.67,4.99,31.31,0
		c4.32-2.5,6.51-5.77,6.51-9.04l0,0v-78.96c0-13.48,10.63-31.89,22.3-38.62l58.49-33.77c0.05-0.03,0.09-0.05,0.14-0.08
		c0,0.05,0,0.1,0,0.16v78.96l0,0c0,3.27,2.18,6.54,6.51,9.04c8.65,4.99,22.67,4.99,31.31,0c4.32-2.5,6.51-5.77,6.51-9.04l0,0v-78.96
		C813.23,303.71,805.63,288.84,792.37,281.19z"/>
	<path id="XMLID_19_" class="st16" d="M768.9,321.99v78.96c0,3.27,2.18,6.54,6.51,9.04c1.94,1.12,4.16,1.97,6.52,2.59v-98.26
		l-13.02,7.52C768.9,321.89,768.9,321.94,768.9,321.99z"/>
</g>
</svg>
